<svg width="317" height="102" viewBox="0 0 317 102" fill="none" xmlns="http://www.w3.org/2000/svg">
<g filter="url(#filter0_d_408_3379)">
<path fill-rule="evenodd" clip-rule="evenodd" d="M9 94C6.23858 94 4 91.7614 4 89L4 63.4407C12.329 63.1306 19 55.0994 19 45.2375C19 35.3756 12.329 27.3444 4 27.0343L4 5.00001C4 2.23859 6.23858 1.51438e-05 9 1.5002e-05L308 0C310.761 0 313 2.23858 313 5V27.0343C312.834 27.0281 312.667 27.025 312.5 27.025C303.94 27.025 297 35.179 297 45.2375C297 55.296 303.94 63.45 312.5 63.45C312.667 63.45 312.834 63.4469 313 63.4407V89C313 91.7614 310.761 94 308 94L9 94Z" fill="#629540"/>
</g>
<defs>
<filter id="filter0_d_408_3379" x="0" y="0" width="317" height="102" filterUnits="userSpaceOnUse" color-interpolation-filters="sRGB">
<feFlood flood-opacity="0" result="BackgroundImageFix"/>
<feColorMatrix in="SourceAlpha" type="matrix" values="0 0 0 0 0 0 0 0 0 0 0 0 0 0 0 0 0 0 127 0" result="hardAlpha"/>
<feOffset dy="4"/>
<feGaussianBlur stdDeviation="2"/>
<feComposite in2="hardAlpha" operator="out"/>
<feColorMatrix type="matrix" values="0 0 0 0 0 0 0 0 0 0 0 0 0 0 0 0 0 0 0.08 0"/>
<feBlend mode="normal" in2="BackgroundImageFix" result="effect1_dropShadow_408_3379"/>
<feBlend mode="normal" in="SourceGraphic" in2="effect1_dropShadow_408_3379" result="shape"/>
</filter>
</defs>
</svg>
