<svg width="28" height="25" viewBox="0 0 28 25" fill="none" xmlns="http://www.w3.org/2000/svg">
<path fill-rule="evenodd" clip-rule="evenodd" d="M21.8083 -0.000274658H6.19233C3.14137 -0.000274658 0.668326 2.47277 0.668326 5.52373L0.666992 9.24337C0.666794 9.79579 1.11457 10.2437 1.66699 10.2437C2.80269 10.2437 3.65233 11.0475 3.65233 12.1131C3.65233 13.2128 2.76671 14.0984 1.66699 14.0984C1.11471 14.0984 0.666992 14.5461 0.666992 15.0984V18.6984C0.666992 21.7495 3.13887 24.2224 6.18966 24.2224H21.8097C24.8615 24.2224 27.3337 21.7498 27.3337 18.6984V15.0984C27.3337 14.5461 26.8859 14.0984 26.3337 14.0984C25.2327 14.0984 24.347 13.2129 24.347 12.1131C24.347 11.0771 25.1311 10.2326 26.1417 10.1368L26.3337 10.1277C26.8862 10.1277 27.3341 9.67956 27.3337 9.12698L27.331 5.52298C27.331 2.47261 24.8591 -0.000274658 21.8083 -0.000274658ZM21.8083 1.99973L22.0312 2.00666C23.8733 2.1216 25.331 3.65187 25.331 5.52373L25.3333 8.25466L25.2004 8.29028C23.5487 8.77695 22.347 10.3014 22.347 12.1131L22.3538 12.3476C22.4524 14.0546 23.6208 15.4701 25.2005 15.9358L25.3333 15.9693L25.3337 18.6984C25.3337 20.6453 23.7569 22.2224 21.8097 22.2224H6.18968L5.96684 22.2155C4.12469 22.1005 2.66701 20.5702 2.66701 18.6984L2.66661 15.9693L2.79966 15.9357C4.45059 15.4488 5.65234 13.9237 5.65234 12.1131L5.64563 11.8798C5.54767 10.1851 4.38668 8.83804 2.80396 8.39727L2.66661 8.36266L2.66834 5.52408C2.66834 3.57734 4.24596 1.99973 6.19234 1.99973H21.8083ZM11.9079 9.17066L9.83566 9.47215L9.68824 9.50228C8.73522 9.75257 8.3855 10.9677 9.11672 11.6823L10.6172 13.144L10.2634 15.2111L10.2466 15.3539C10.1827 16.3405 11.236 17.0515 12.142 16.5791L13.9986 15.6027L15.8542 16.5775L15.9849 16.6372C16.9047 17.0004 17.909 16.222 17.736 15.2116L17.3799 13.144L18.8824 11.6838L18.9842 11.5728C19.6099 10.8105 19.1773 9.62232 18.1677 9.47256L16.0906 9.17066L15.1616 7.28966C14.6889 6.32668 13.3162 6.32668 12.8388 7.28736L11.9079 9.17066ZM13.9994 9L14.6462 10.3735L14.732 10.5279C14.9226 10.8215 15.223 11.0211 15.5629 11.073L17.0002 11.2922L15.9606 12.3578L15.847 12.4913C15.6395 12.7727 15.5514 13.135 15.6096 13.491L15.8554 15L14.5675 14.2879L14.4116 14.2159C14.0929 14.0959 13.738 14.1199 13.4339 14.2879L12.145 14.9983L12.3918 13.491L12.4088 13.313C12.419 12.9574 12.2875 12.61 12.0411 12.3581L11.0002 11.2922L12.4386 11.073C12.8351 11.0124 13.1778 10.7509 13.3552 10.3735L13.9994 9Z" fill="#53C2EA"/>
</svg>
