<svg width="57" height="55" viewBox="0 0 57 55" fill="none" xmlns="http://www.w3.org/2000/svg">
<path d="M17.0168 12.0313L28.0824 1.0026C28.2067 0.878692 28.4095 0.878692 28.5349 1.0026L31.86 4.31654C31.9843 4.44044 31.9843 4.6426 31.86 4.7676L26.5458 10.064C26.3593 10.2499 26.4651 10.5749 26.7258 10.6064C29.8065 10.9814 32.9919 10.2705 35.6637 8.47064C35.7902 8.38587 35.9571 8.39891 36.064 8.50651L39.5995 12.0302C39.7369 12.1672 39.7227 12.3987 39.5667 12.5161C32.9211 17.5093 23.6984 17.5038 17.0484 12.5161C16.8935 12.3998 16.8783 12.1683 17.0168 12.0313Z" fill="#775BA3"/>
<path d="M7.13992 35.5368L0.035125 21.6398C-0.0455742 21.4833 0.0176765 21.2909 0.174713 21.2115L4.36452 19.0834C4.52156 19.003 4.71458 19.066 4.79419 19.2225L8.20646 25.8971C8.32641 26.1308 8.66884 26.1319 8.78008 25.8939C10.0898 23.0897 10.3962 19.8508 9.50419 16.7618C9.46166 16.6162 9.52709 16.4618 9.66231 16.3933L14.1182 14.1304C14.2916 14.0424 14.5075 14.1272 14.5719 14.3109C17.2829 22.1528 14.4279 30.8936 7.61321 35.6553C7.45399 35.7672 7.22825 35.7096 7.13992 35.5368Z" fill="#53C2EA"/>
<path d="M26.5168 52.1619L11.0607 54.602C10.8862 54.6291 10.7227 54.5107 10.6954 54.3368L9.95929 49.7077C9.93203 49.5338 10.0509 49.3708 10.2254 49.3436L17.6486 48.1719C17.9092 48.1306 18.015 47.8056 17.8231 47.6274C15.5515 45.5188 12.5558 44.2276 9.33224 44.1189C9.18065 44.1134 9.05306 44.0048 9.02907 43.8548L8.24716 38.9322C8.21663 38.7409 8.36494 38.5616 8.56014 38.5583C16.8809 38.4116 24.339 43.8189 26.7774 51.75C26.8341 51.9358 26.7098 52.1315 26.5168 52.1619Z" fill="#4AB3E7"/>
<path d="M48.3693 38.932L45.9211 54.3365C45.8938 54.5104 45.7291 54.6289 45.5557 54.6017L40.9112 53.8681C40.7367 53.8409 40.6178 53.6768 40.6451 53.504L41.8207 46.1055C41.8621 45.8457 41.5851 45.6446 41.355 45.7718C38.6418 47.2728 36.4836 49.714 35.3833 52.7355C35.3309 52.8779 35.1881 52.9649 35.0376 52.941L30.0986 52.1617C29.9066 52.1312 29.7812 51.9356 29.8379 51.7497C32.2698 43.8176 39.7334 38.4179 48.0552 38.5581C48.2515 38.5613 48.3998 38.7407 48.3693 38.932Z" fill="#3E87C7"/>
<path d="M42.4976 14.1304L56.4411 21.2115C56.5981 21.2919 56.6614 21.4832 56.5807 21.6397L54.4454 25.8156C54.3647 25.9721 54.1728 26.0351 54.0158 25.9547L47.3188 22.5538C47.0844 22.4343 46.8063 22.6353 46.8564 22.8929C47.4508 25.9286 49.1127 28.7285 51.6559 30.7055C51.7758 30.799 51.8151 30.9609 51.7453 31.0968L49.4748 35.5378C49.3865 35.7107 49.1607 35.7683 49.0015 35.6574C42.1835 30.9012 39.3383 22.1582 42.0428 14.313C42.1072 14.1271 42.3242 14.0423 42.4976 14.1304Z" fill="#605EA7"/>
</svg>
