<svg width="32" height="32" viewBox="0 0 32 32" fill="none" xmlns="http://www.w3.org/2000/svg">
<path fill-rule="evenodd" clip-rule="evenodd" d="M23.8083 3.99976H8.19233C5.14137 3.99976 2.66833 6.4728 2.66833 9.52376L2.66699 13.2434C2.66679 13.7958 3.11457 14.2438 3.66699 14.2438C4.80269 14.2438 5.65233 15.0475 5.65233 16.1131C5.65233 17.2128 4.76671 18.0984 3.66699 18.0984C3.11471 18.0984 2.66699 18.5461 2.66699 19.0984V22.6984C2.66699 25.7495 5.13887 28.2224 8.18966 28.2224H23.8097C26.8615 28.2224 29.3337 25.7498 29.3337 22.6984V19.0984C29.3337 18.5461 28.8859 18.0984 28.3337 18.0984C27.2327 18.0984 26.347 17.2129 26.347 16.1131C26.347 15.0772 27.1311 14.2326 28.1417 14.1368L28.3337 14.1278C28.8862 14.1278 29.3341 13.6796 29.3337 13.127L29.331 9.52302C29.331 6.47264 26.8591 3.99976 23.8083 3.99976ZM23.8083 5.99976L24.0312 6.00669C25.8733 6.12163 27.331 7.6519 27.331 9.52376L27.3333 12.2547L27.2004 12.2903C25.5487 12.777 24.347 14.3014 24.347 16.1131L24.3538 16.3476C24.4524 18.0546 25.6208 19.4701 27.2005 19.9358L27.3333 19.9694L27.3337 22.6984C27.3337 24.6453 25.7569 26.2224 23.8097 26.2224H8.18968L7.96684 26.2155C6.12469 26.1005 4.66701 24.5703 4.66701 22.6984L4.66661 19.9694L4.79966 19.9358C6.45059 19.4488 7.65234 17.9238 7.65234 16.1131L7.64563 15.8799C7.54767 14.1851 6.38668 12.8381 4.80396 12.3973L4.66661 12.3627L4.66834 9.52411C4.66834 7.57737 6.24596 5.99976 8.19234 5.99976H23.8083ZM13.9079 13.1707L11.8357 13.4722L11.6882 13.5023C10.7352 13.7526 10.3855 14.9677 11.1167 15.6823L12.6172 17.144L12.2634 19.2112L12.2466 19.3539C12.1827 20.3405 13.236 21.0516 14.142 20.5791L15.9986 19.6027L17.8542 20.5775L17.9849 20.6373C18.9047 21.0004 19.909 20.222 19.736 19.2116L19.3799 17.144L20.8824 15.6838L20.9842 15.5728C21.6099 14.8105 21.1773 13.6224 20.1677 13.4726L18.0906 13.1707L17.1616 11.2897C16.6889 10.3267 15.3162 10.3267 14.8388 11.2874L13.9079 13.1707ZM15.9994 13L16.6462 14.3736L16.732 14.528C16.9226 14.8216 17.223 15.0212 17.5629 15.0731L19.0002 15.2922L17.9606 16.3578L17.847 16.4913C17.6395 16.7727 17.5514 17.135 17.6096 17.4911L17.8554 19L16.5675 18.288L16.4116 18.216C16.0929 18.096 15.738 18.12 15.4339 18.288L14.145 18.9983L14.3918 17.4911L14.4088 17.313C14.419 16.9574 14.2875 16.6101 14.0411 16.3581L13.0002 15.2922L14.4386 15.0731C14.8351 15.0125 15.1778 14.7509 15.3552 14.3736L15.9994 13Z" fill="#775BA3"/>
</svg>
