<svg width="516" height="506" viewBox="0 0 516 506" fill="none" xmlns="http://www.w3.org/2000/svg">
<path d="M141.699 178.705L185.153 76.4393C185.641 75.2903 186.977 74.7513 188.133 75.2366L218.862 88.2943C220.011 88.7826 220.55 90.1181 220.065 91.2743L199.196 140.387C198.464 142.11 200.027 143.976 201.827 143.492C223.112 137.782 242.191 124.621 254.984 105.63C255.591 104.734 256.724 104.377 257.715 104.804L290.389 118.688C291.659 119.228 292.183 120.795 291.469 121.985C261.024 172.632 200.284 197.104 143.199 181.824C141.87 181.467 141.152 179.978 141.699 178.705Z" fill="#775BA3"/>
<path d="M139.337 360.24L55.5032 287.31C54.5546 286.49 54.4581 285.051 55.2805 284.109L77.1937 258.916C78.0132 257.967 79.4522 257.871 80.3937 258.693L120.658 293.722C122.071 294.947 124.328 294.044 124.426 292.176C125.573 270.17 118.955 247.957 104.845 229.921C104.177 229.071 104.196 227.878 104.904 227.066L128.21 200.275C129.117 199.233 130.764 199.219 131.678 200.262C170.437 244.865 174.944 310.198 142.769 359.765C142.02 360.928 140.38 361.147 139.337 360.24Z" fill="#53C2EA"/>
<path d="M311.246 418.584L215.983 475.776C214.907 476.419 213.514 476.071 212.871 474.995L195.682 446.369C195.038 445.293 195.386 443.9 196.463 443.257L242.216 415.79C243.822 414.824 243.652 412.396 241.913 411.729C221.334 403.835 198.167 403.265 176.652 411.113C175.639 411.48 174.509 411.101 173.951 410.174L155.678 379.731C154.967 378.548 155.465 376.969 156.742 376.429C211.138 353.349 274.662 369.253 311.864 415.17C312.733 416.247 312.436 417.87 311.246 418.584Z" fill="#4AB3E7"/>
<path d="M419.862 273.109L444.815 381.384C445.099 382.606 444.331 383.826 443.116 384.107L410.579 391.603C409.357 391.887 408.137 391.118 407.856 389.904L395.87 337.902C395.45 336.076 393.09 335.484 391.914 336.935C378.051 354.062 370.35 375.924 371.161 398.81C371.196 399.89 370.487 400.844 369.433 401.086L334.835 409.062C333.49 409.371 332.142 408.412 332.02 407.033C326.883 348.167 361.629 292.661 416.797 271.473C418.099 270.973 419.553 271.764 419.862 273.109Z" fill="#3E87C7"/>
<path d="M315.075 124.859L425.765 134.587C427.013 134.702 427.94 135.797 427.826 137.046L424.9 170.307C424.786 171.556 423.691 172.482 422.442 172.368L369.279 167.697C367.417 167.53 366.122 169.597 367.139 171.166C379.146 189.642 397.554 203.722 419.571 210.026C420.61 210.324 421.3 211.29 421.203 212.373L418.094 247.746C417.973 249.123 416.64 250.103 415.296 249.794C357.723 236.489 315.678 186.29 312.568 127.274C312.496 125.875 313.699 124.738 315.075 124.859Z" fill="#605EA7"/>
</svg>
