<svg width="33" height="33" viewBox="0 0 33 33" fill="none" xmlns="http://www.w3.org/2000/svg">
<circle cx="16.5" cy="16.5" r="16.5" fill="#32286D"/>
<path d="M20.4286 15.46L19.934 15.5334L20.4286 15.46ZM17.54 12.5714L17.4667 13.066L17.54 12.5714ZM12.7143 7.92859H21.2857V6.92859H12.7143V7.92859ZM21.2857 7.92859C23.3765 7.92859 25.0714 9.62351 25.0714 11.7143H26.0714C26.0714 9.07123 23.9288 6.92859 21.2857 6.92859V7.92859ZM25.0714 11.7143V20.2857H26.0714V11.7143H25.0714ZM25.0714 20.2857C25.0714 22.3765 23.3765 24.0714 21.2857 24.0714V25.0714C23.9288 25.0714 26.0714 22.9288 26.0714 20.2857H25.0714ZM21.2857 24.0714H12.7143V25.0714H21.2857V24.0714ZM12.7143 24.0714C10.6235 24.0714 8.92859 22.3765 8.92859 20.2857H7.92859C7.92859 22.9288 10.0712 25.0714 12.7143 25.0714V24.0714ZM8.92859 20.2857V11.7143H7.92859V20.2857H8.92859ZM8.92859 11.7143C8.92859 9.62351 10.6235 7.92859 12.7143 7.92859V6.92859C10.0712 6.92859 7.92859 9.07123 7.92859 11.7143H8.92859ZM19.934 15.5334C20.0244 16.1427 19.9203 16.765 19.6366 17.3117L20.5242 17.7723C20.9048 17.0389 21.0444 16.2041 20.9232 15.3867L19.934 15.5334ZM19.6366 17.3117C19.3529 17.8585 18.904 18.3019 18.3538 18.5788L18.8033 19.4721C19.5414 19.1006 20.1436 18.5058 20.5242 17.7723L19.6366 17.3117ZM18.3538 18.5788C17.8035 18.8558 17.18 18.9522 16.5718 18.8543L16.413 19.8416C17.2288 19.9729 18.0652 19.8436 18.8033 19.4721L18.3538 18.5788ZM16.5718 18.8543C15.9637 18.7564 15.4019 18.4693 14.9663 18.0337L14.2592 18.7409C14.8435 19.3251 15.5971 19.7103 16.413 19.8416L16.5718 18.8543ZM14.9663 18.0337C14.5307 17.5982 14.2436 17.0364 14.1457 16.4282L13.1584 16.5871C13.2897 17.4029 13.6749 18.1566 14.2592 18.7409L14.9663 18.0337ZM14.1457 16.4282C14.0479 15.82 14.1443 15.1965 14.4212 14.6463L13.528 14.1967C13.1565 14.9348 13.0271 15.7712 13.1584 16.5871L14.1457 16.4282ZM14.4212 14.6463C14.6981 14.0961 15.1415 13.6472 15.6883 13.3635L15.2277 12.4758C14.4943 12.8564 13.8995 13.4586 13.528 14.1967L14.4212 14.6463ZM15.6883 13.3635C16.2351 13.0798 16.8574 12.9757 17.4667 13.066L17.6134 12.0769C16.796 11.9556 15.9612 12.0953 15.2277 12.4758L15.6883 13.3635ZM17.4667 13.066C18.0882 13.1582 18.6636 13.4478 19.1079 13.8921L19.815 13.185C19.219 12.589 18.4471 12.2005 17.6134 12.0769L17.4667 13.066ZM19.1079 13.8921C19.5522 14.3364 19.8418 14.9118 19.934 15.5334L20.9232 15.3867C20.7995 14.5529 20.411 13.781 19.815 13.185L19.1079 13.8921ZM22.5 10.8572C22.5 11.0544 22.3401 11.2143 22.1429 11.2143V12.2143C22.8924 12.2143 23.5 11.6067 23.5 10.8572H22.5ZM22.1429 11.2143C21.9456 11.2143 21.7857 11.0544 21.7857 10.8572H20.7857C20.7857 11.6067 21.3933 12.2143 22.1429 12.2143V11.2143ZM21.7857 10.8572C21.7857 10.6599 21.9456 10.5 22.1429 10.5V9.50002C21.3933 9.50002 20.7857 10.1076 20.7857 10.8572H21.7857ZM22.1429 10.5C22.3401 10.5 22.5 10.6599 22.5 10.8572H23.5C23.5 10.1076 22.8924 9.50002 22.1429 9.50002V10.5Z" fill="white"/>
</svg>
