<svg width="24" height="24" viewBox="0 0 24 24" fill="none" xmlns="http://www.w3.org/2000/svg">
<path fill-rule="evenodd" clip-rule="evenodd" d="M7.21618 0H3.57089C1.59707 0 0 1.61093 0 3.59462V7.27156C0 9.25443 1.59741 10.8662 3.57089 10.8662H7.21618C9.18966 10.8662 10.7871 9.25443 10.7871 7.27156V3.59462C10.7871 1.61093 9.18999 0 7.21618 0ZM3.57095 1.67442H7.21624C8.26204 1.67442 9.11271 2.53247 9.11271 3.59463V7.27156C9.11271 8.33302 8.2616 9.19177 7.21624 9.19177H3.57095C2.52559 9.19177 1.67448 8.33302 1.67448 7.27156V3.59463C1.67448 2.53247 2.52514 1.67442 3.57095 1.67442ZM20.4302 0H16.7838C14.81 0 13.2129 1.61093 13.2129 3.59462V7.27156C13.2129 9.25444 14.8103 10.8662 16.7838 10.8662H20.4302C22.4028 10.8662 24 9.2542 24 7.27156V3.59462C24 1.61117 22.4031 0 20.4302 0ZM16.7838 1.67442H20.4303C21.4751 1.67442 22.3256 2.5326 22.3256 3.59463V7.27156C22.3256 8.33289 21.4746 9.19177 20.4303 9.19177H16.7838C15.7385 9.19177 14.8874 8.33302 14.8874 7.27156V3.59463C14.8874 2.53247 15.738 1.67442 16.7838 1.67442ZM3.57089 13.1338H7.21618C9.19023 13.1338 10.7871 14.745 10.7871 16.7296V20.4054C10.7871 22.3891 9.18999 24 7.21618 24H3.57089C1.59707 24 0 22.3891 0 20.4054V16.7296C0 14.745 1.59684 13.1338 3.57089 13.1338ZM7.21624 14.8082H3.57095C2.52502 14.8082 1.67448 15.6664 1.67448 16.7296V20.4054C1.67448 21.4675 2.52514 22.3256 3.57095 22.3256H7.21624C8.26204 22.3256 9.11271 21.4675 9.11271 20.4054V16.7296C9.11271 15.6664 8.26217 14.8082 7.21624 14.8082ZM20.4302 13.1338H16.7838C14.8097 13.1338 13.2129 14.745 13.2129 16.7296V20.4054C13.2129 22.3891 14.81 24 16.7838 24H20.4302C22.4031 24 24 22.3888 24 20.4054V16.7296C24 14.7452 22.4033 13.1338 20.4302 13.1338ZM16.7838 14.8082H20.4303C21.4752 14.8082 22.3256 15.6665 22.3256 16.7296V20.4054C22.3256 21.4674 21.4751 22.3256 20.4303 22.3256H16.7838C15.738 22.3256 14.8874 21.4675 14.8874 20.4054V16.7296C14.8874 15.6664 15.7379 14.8082 16.7838 14.8082Z" fill="#775BA3"/>
</svg>
