<svg width="375" height="31" viewBox="0 0 375 31" fill="none" xmlns="http://www.w3.org/2000/svg">
<mask id="mask0_408_2676" style="mask-type:alpha" maskUnits="userSpaceOnUse" x="0" y="0" width="378" height="31">
<path d="M0 0H378V21.4027C378 26.7031 373.703 31 368.403 31H9.59732C4.29687 31 0 26.7031 0 21.4027V0Z" fill="#32286D"/>
</mask>
<g mask="url(#mask0_408_2676)">
<path d="M-1.27982 18.8025L-21.7816 -2.39267L19.2219 -2.39266L-1.27982 18.8025Z" fill="#32286D"/>
<path d="M263.432 18.8025L242.93 -2.39267L283.934 -2.39266L263.432 18.8025Z" fill="#32286D"/>
<path d="M36.3832 18.8025L16.8133 -2.39267L55.953 -2.39266L36.3832 18.8025Z" fill="#32286D"/>
<path d="M302.169 18.8025L281.668 -2.39267L322.671 -2.39266L302.169 18.8025Z" fill="#32286D"/>
<path d="M149.369 18.8025L128.867 -2.39267L169.87 -2.39266L149.369 18.8025Z" fill="#32286D"/>
<path d="M74.0444 18.8025L53.5427 -2.39267L94.5461 -2.39266L74.0444 18.8025Z" fill="#32286D"/>
<path d="M339.831 18.8025L320.262 -2.39267L359.401 -2.39266L339.831 18.8025Z" fill="#32286D"/>
<path d="M188.107 18.8025L167.605 -2.39267L208.609 -2.39266L188.107 18.8025Z" fill="#32286D"/>
<path d="M112.783 18.8025L92.2809 -2.39267L133.284 -2.39266L112.783 18.8025Z" fill="#32286D"/>
<path d="M377.495 18.8025L356.993 -2.39267L397.996 -2.39266L377.495 18.8025Z" fill="#32286D"/>
<path d="M226.844 18.8025L206.342 -2.39267L247.346 -2.39266L226.844 18.8025Z" fill="#32286D"/>
</g>
</svg>
