<svg width="24" height="24" viewBox="0 0 24 24" fill="none" xmlns="http://www.w3.org/2000/svg">
<path d="M17.713 2.0218L20.2156 2.29987C21.4552 2.4376 22.4092 3.42515 22.228 4.65914C21.8682 7.10894 20.551 11.3915 15.9719 15.9705C11.393 20.5495 7.10994 21.8673 4.65971 22.2275C3.42552 22.4089 2.43765 21.4549 2.29989 20.215L2.02188 17.7129C1.90445 16.656 2.42614 15.6304 3.34947 15.1029L5.01122 14.1536C6.05529 13.5572 7.36936 13.7333 8.2196 14.5835L8.24459 14.6085C8.87505 15.2389 9.78628 15.505 10.5741 15.0875C11.263 14.7223 12.1654 14.1202 13.1428 13.1427C14.1202 12.1653 14.7224 11.263 15.0875 10.574C15.5051 9.7862 15.239 8.87497 14.6085 8.24451L14.5836 8.21953C13.7333 7.36929 13.5573 6.05521 14.1537 5.01115L15.103 3.3494C15.6305 2.42607 16.6561 1.90437 17.713 2.0218Z" stroke="#4D3E68" stroke-width="2.66667" stroke-linecap="round" stroke-linejoin="round"/>
</svg>
