<svg width="33" height="33" viewBox="0 0 33 33" fill="none" xmlns="http://www.w3.org/2000/svg">
<circle cx="16.5" cy="16.5" r="16.5" fill="#32286D"/>
<path d="M7.55754 11.88L10.3838 14.1113M7.53129 21.0675L10.3663 18.8363M20.2363 21.89L23.0625 24.1213M26.5625 16.5C26.5606 17.0872 26.505 17.673 26.3963 18.25C26.0121 20.4216 24.9233 22.4061 23.2983 23.8969C21.6733 25.3877 19.6025 26.3018 17.406 26.4979C15.2095 26.694 13.0095 26.1612 11.1461 24.9818C9.28272 23.8024 7.85965 22.0421 7.09684 19.973C6.33403 17.9039 6.27395 15.6411 6.92588 13.5344C7.57782 11.4277 8.90547 9.5944 10.7036 8.3178C12.5018 7.04119 14.6704 6.39238 16.8742 6.47164C19.0781 6.55089 21.1945 7.35381 22.8963 8.75628L20.4288 11.25C19.2989 10.393 17.9182 9.93175 16.5 9.93753C15.2771 9.93616 14.0782 10.2765 13.0384 10.9202C11.9986 11.5639 11.1593 12.4854 10.6153 13.5806C10.0713 14.6758 9.84411 15.9013 9.95941 17.1188C10.0747 18.3362 10.5279 19.4973 11.2679 20.4709C12.0078 21.4445 13.0051 22.192 14.1473 22.6291C15.2894 23.0662 16.5309 23.1754 17.7319 22.9445C18.9328 22.7135 20.0453 22.1517 20.9439 21.3222C21.8425 20.4927 22.4914 19.4287 22.8175 18.25H16.9375V14.75H26.3963C26.5005 15.3277 26.5561 15.9131 26.5625 16.5Z" stroke="white" stroke-linecap="round" stroke-linejoin="round"/>
</svg>
