<svg width="44" height="44" viewBox="0 0 44 44" fill="none" xmlns="http://www.w3.org/2000/svg">
<path d="M43.7844 1.1815L43.7846 42.9339C43.7846 43.403 43.4019 43.7856 42.9308 43.7877L30.3849 43.7876C29.9158 43.7876 29.5332 43.4049 29.5311 42.9338L29.531 22.8826C29.531 22.179 28.7163 21.7634 28.1649 22.1955C21.643 27.2977 16.979 34.6528 15.3455 43.1004C15.2673 43.4995 14.9279 43.7896 14.5226 43.7875L1.18253 43.7875C0.664074 43.7875 0.252593 43.3225 0.3246 42.8061C3.41055 20.8169 20.82 3.42803 42.8071 0.323573C43.3194 0.251568 43.7864 0.660986 43.7844 1.1815Z" fill="#413683"/>
</svg>
