<svg width="24" height="24" viewBox="0 0 24 24" fill="none" xmlns="http://www.w3.org/2000/svg">
<circle cx="12" cy="12" r="4" stroke="white" stroke-width="2.66667"/>
<path d="M9.79586 2.67826C10.7936 1.01322 13.2064 1.01322 14.2041 2.67826V2.67826C14.786 3.6493 15.9348 4.12515 17.0329 3.84997V3.84997C18.9158 3.37813 20.6219 5.08422 20.15 6.9671V6.9671C19.8749 8.06518 20.3507 9.21398 21.3217 9.79586V9.79586C22.9868 10.7936 22.9868 13.2064 21.3217 14.2041V14.2041C20.3507 14.786 19.8749 15.9348 20.15 17.0329V17.0329C20.6219 18.9158 18.9158 20.6219 17.0329 20.15V20.15C15.9348 19.8749 14.786 20.3507 14.2041 21.3217V21.3217C13.2064 22.9868 10.7936 22.9868 9.79586 21.3217V21.3217C9.21398 20.3507 8.06518 19.8749 6.9671 20.15V20.15C5.08422 20.6219 3.37813 18.9158 3.84997 17.0329V17.0329C4.12515 15.9348 3.6493 14.786 2.67826 14.2041V14.2041C1.01322 13.2064 1.01322 10.7936 2.67826 9.79586V9.79586C3.6493 9.21398 4.12515 8.06518 3.84997 6.9671V6.9671C3.37813 5.08422 5.08422 3.37813 6.9671 3.84997V3.84997C8.06518 4.12515 9.21398 3.6493 9.79586 2.67826V2.67826Z" stroke="white" stroke-width="2.66667"/>
</svg>
