<svg width="33" height="33" viewBox="0 0 33 33" fill="none" xmlns="http://www.w3.org/2000/svg">
<circle cx="16.5" cy="16.5" r="16.5" fill="#32286D"/>
<path d="M26.4286 9.29439C25.6077 9.87337 24.6989 10.3162 23.7371 10.6058C23.2209 10.0123 22.5348 9.59155 21.7717 9.40061C21.0086 9.20967 20.2053 9.2577 19.4703 9.5382C18.7354 9.81871 18.1044 10.3182 17.6625 10.969C17.2207 11.6198 16.9894 12.3907 17 13.1772V14.0344C15.4937 14.0734 14.0011 13.7394 12.6551 13.0619C11.3092 12.3845 10.1517 11.3846 9.2857 10.1515C9.2857 10.1515 5.85713 17.8658 13.5714 21.2944C11.8061 22.4926 9.70326 23.0935 7.57141 23.0087C15.2857 27.2944 24.7143 23.0087 24.7143 13.1515C24.7135 12.9128 24.6905 12.6746 24.6457 12.4401C25.5205 11.5774 26.1378 10.4881 26.4286 9.29439V9.29439Z" stroke="white" stroke-linecap="round" stroke-linejoin="round"/>
</svg>
