<svg width="23" height="23" viewBox="0 0 23 23" fill="none" xmlns="http://www.w3.org/2000/svg">
<path fill-rule="evenodd" clip-rule="evenodd" d="M3.35424 11.5C3.35424 9.88891 3.83199 8.31399 4.72706 6.97442C5.62214 5.63484 6.89434 4.59077 8.3828 3.97423C9.87125 3.35769 11.5091 3.19638 13.0892 3.51069C14.6694 3.825 16.1208 4.60081 17.26 5.74003C18.3993 6.87924 19.1751 8.33069 19.4894 9.91083C19.8037 11.491 19.6424 13.1288 19.0258 14.6173C18.4093 16.1057 17.3652 17.3779 16.0257 18.273C14.6861 19.1681 13.1112 19.6458 11.5001 19.6458C9.95893 19.6486 8.44896 19.2117 7.14732 18.3866C7.03154 18.3133 6.9014 18.2658 6.76567 18.2471C6.62995 18.2284 6.4918 18.2391 6.36053 18.2783L3.60053 19.1015L4.64032 16.6702C4.70076 16.5287 4.72622 16.3746 4.71454 16.2212C4.70287 16.0677 4.6544 15.9193 4.57324 15.7885C3.77392 14.5011 3.35161 13.0154 3.35424 11.5ZM11.5001 1.4375C5.9427 1.4375 1.43757 5.94263 1.43757 11.5C1.43757 13.2614 1.89087 14.9193 2.6882 16.3616L1.03507 20.2275C0.963525 20.395 0.941171 20.5794 0.970631 20.7591C1.00009 20.9388 1.08015 21.1064 1.20142 21.2423C1.32269 21.3781 1.48016 21.4766 1.65539 21.5262C1.83062 21.5758 2.01635 21.5744 2.19082 21.5222L6.50332 20.2362C8.02422 21.1077 9.74715 21.5651 11.5001 21.5625C17.0574 21.5625 21.5626 17.0574 21.5626 11.5C21.5626 5.94263 17.0574 1.4375 11.5001 1.4375ZM13.6975 13.5911L12.4373 14.4785C11.743 14.079 11.1054 13.5881 10.5417 13.019C9.93659 12.4146 9.41334 11.7335 8.98541 10.993L9.78561 10.3136C9.95236 10.1721 10.0657 9.97788 10.1068 9.76312C10.148 9.54836 10.1144 9.32599 10.0118 9.13292L8.99212 7.21625C8.92426 7.08896 8.82855 6.97863 8.71211 6.89348C8.59567 6.80834 8.46152 6.75058 8.31964 6.72451C8.17777 6.69844 8.03185 6.70473 7.89275 6.74291C7.75365 6.7811 7.62496 6.85019 7.51628 6.94504L7.21345 7.20858C6.48607 7.843 6.05578 8.88567 6.41228 9.94175C6.98585 11.6122 7.93498 13.1289 9.18666 14.375C10.9241 16.1125 12.6894 16.7967 13.7224 17.0631C14.5543 17.2768 15.3411 16.9903 15.8959 16.538L16.4623 16.076C16.5817 15.9787 16.6759 15.8539 16.7369 15.7124C16.7978 15.5709 16.8237 15.4168 16.8124 15.2631C16.8012 15.1095 16.753 14.9608 16.672 14.8297C16.5911 14.6986 16.4797 14.589 16.3473 14.5101L14.7392 13.5518C14.5802 13.4569 14.3971 13.4101 14.2121 13.4171C14.0271 13.4241 13.848 13.4845 13.6966 13.5911H13.6975Z" fill="white"/>
</svg>
