<svg width="209" height="185" viewBox="0 0 209 185" fill="none" xmlns="http://www.w3.org/2000/svg">
<path d="M81.9698 26.4469L108.195 0.220983C108.49 -0.0736612 108.971 -0.0736612 109.268 0.220983L117.148 8.10144C117.443 8.39608 117.443 8.87682 117.148 9.17405L104.554 21.7688C104.112 22.2108 104.363 22.9836 104.98 23.0585C112.282 23.9502 119.831 22.2599 126.163 17.9798C126.463 17.7782 126.859 17.8092 127.112 18.0651L135.491 26.4444C135.817 26.77 135.783 27.3205 135.414 27.5997C119.663 39.4733 97.8055 39.4604 82.0447 27.5997C81.6777 27.3231 81.6415 26.7726 81.9698 26.4469Z" fill="white"/>
<path d="M58.5614 82.3421L41.7229 49.2954C41.5316 48.9232 41.6815 48.4657 42.0537 48.2771L51.9837 43.2164C52.3558 43.0252 52.8133 43.1751 53.002 43.5472L61.0891 59.4193C61.3734 59.975 62.185 59.9776 62.4486 59.4115C65.5527 52.7433 66.2789 45.0412 64.1647 37.6957C64.0639 37.3494 64.219 36.9824 64.5395 36.8195L75.1001 31.4384C75.511 31.229 76.0228 31.4306 76.1753 31.8674C82.6005 50.5153 75.8341 71.3007 59.6831 82.6239C59.3057 82.8901 58.7707 82.7531 58.5614 82.3421Z" fill="white"/>
<path d="M104.484 121.876L67.8527 127.679C67.4392 127.743 67.0515 127.462 66.9869 127.048L65.2423 116.04C65.1777 115.627 65.4594 115.239 65.8729 115.174L83.4661 112.388C84.0838 112.29 84.3345 111.517 83.8797 111.093C78.496 106.079 71.3962 103.009 63.7562 102.75C63.3969 102.737 63.0945 102.479 63.0377 102.122L61.1845 90.4165C61.1122 89.9616 61.4637 89.5352 61.9263 89.5274C81.6466 89.1785 99.3225 102.037 105.102 120.897C105.236 121.339 104.941 121.804 104.484 121.876Z" fill="white"/>
<path d="M156.277 90.4159L150.474 127.048C150.41 127.461 150.019 127.743 149.608 127.678L138.601 125.934C138.187 125.869 137.905 125.479 137.97 125.068L140.756 107.474C140.854 106.857 140.198 106.378 139.653 106.681C133.222 110.25 128.107 116.055 125.499 123.24C125.375 123.579 125.037 123.786 124.68 123.729L112.975 121.876C112.52 121.803 112.222 121.338 112.357 120.896C118.12 102.034 135.809 89.1934 155.532 89.5269C155.997 89.5346 156.349 89.9611 156.277 90.4159Z" fill="white"/>
<path d="M142.361 31.4383L175.408 48.277C175.78 48.4682 175.93 48.9231 175.739 49.2953L170.678 59.2253C170.487 59.5975 170.032 59.7474 169.66 59.5562L153.788 51.4689C153.232 51.1846 152.573 51.6628 152.692 52.2753C154.101 59.4941 158.04 66.1521 164.067 70.8535C164.351 71.0757 164.444 71.4608 164.279 71.7839L158.898 82.3446C158.688 82.7556 158.153 82.8925 157.776 82.6289C141.617 71.3187 134.874 50.5282 141.284 31.8725C141.436 31.4305 141.951 31.2289 142.361 31.4383Z" fill="white"/>
<path d="M27.5674 164.603H6.91849C7.21754 166.423 8.01353 167.87 9.3094 168.945C10.6023 170.022 12.2559 170.559 14.2642 170.559C16.6654 170.559 18.7294 169.719 20.4562 168.039L25.8713 170.581C24.5227 172.495 22.9058 173.911 21.0221 174.83C19.1384 175.748 16.9029 176.208 14.3111 176.208C10.293 176.208 7.01964 174.942 4.4924 172.406C1.96662 169.871 0.701538 166.696 0.701538 162.882C0.701538 158.975 1.96222 155.729 4.48214 153.146C7.00205 150.565 10.1582 149.273 13.9578 149.273C17.992 149.273 21.2728 150.565 23.8015 153.146C26.3272 155.729 27.5923 159.138 27.5923 163.376L27.5674 164.603ZM21.1408 159.539C20.7157 158.111 19.8787 156.95 18.6268 156.055C17.3778 155.159 15.928 154.712 14.2759 154.712C12.4831 154.712 10.9102 155.215 9.56008 156.22C8.70984 156.848 7.92265 157.955 7.19995 159.539H21.1408Z" fill="white"/>
<path d="M29.7089 149.933H31.9928C32.0074 146.576 32.0617 144.59 32.1569 143.977C32.3299 142.566 32.9236 141.447 33.9351 140.622C34.948 139.798 36.3817 139.386 38.2332 139.386C39.5672 139.386 41.0741 139.692 42.7526 140.305V145.201C41.8276 144.936 41.0668 144.803 40.4702 144.803C39.7167 144.803 39.167 144.958 38.821 145.273C38.5703 145.508 38.4457 145.994 38.4457 146.732L38.4208 149.933H42.4961V155.373H38.4208V175.551H31.9942V155.373H29.7103V149.933H29.7089Z" fill="white"/>
<path d="M48.7678 139.385C49.8951 139.385 50.8626 139.794 51.6674 140.61C52.4721 141.425 52.8767 142.415 52.8767 143.576C52.8767 144.722 52.4765 145.698 51.6791 146.508C50.8802 147.317 49.9258 147.72 48.8147 147.72C47.6727 147.72 46.6979 147.309 45.8931 146.484C45.0854 145.66 44.6837 144.659 44.6837 143.482C44.6837 142.352 45.0825 141.387 45.8814 140.587C46.6788 139.785 47.6419 139.385 48.7678 139.385ZM45.553 149.933H51.9811V175.551H45.553V149.933Z" fill="white"/>
<path d="M64.2033 149.933V152.759C65.3643 151.598 66.6191 150.726 67.9692 150.146C69.3193 149.565 70.7633 149.275 72.301 149.275C75.6448 149.275 78.4843 150.537 80.8239 153.066C83.162 155.593 84.3318 158.834 84.3318 162.788C84.3318 166.604 83.1224 169.794 80.7051 172.359C78.2878 174.926 75.4249 176.209 72.1119 176.209C70.6372 176.209 69.2636 175.945 67.9927 175.42C66.7203 174.895 65.4567 174.035 64.2018 172.841V184.921H57.8207V149.933H64.2033ZM70.9582 155.208C68.9338 155.208 67.2539 155.898 65.9214 157.279C64.5874 158.66 63.9189 160.467 63.9189 162.694C63.9189 164.971 64.5874 166.812 65.9214 168.215C67.2539 169.621 68.9338 170.321 70.9582 170.321C72.9196 170.321 74.5732 169.609 75.916 168.18C77.2558 166.752 77.9287 164.931 77.9287 162.718C77.9287 160.519 77.269 158.718 75.9512 157.313C74.6333 155.91 72.9666 155.208 70.9582 155.208Z" fill="white"/>
<path d="M89.6296 149.934H96.1281V162.272C96.1281 164.674 96.2922 166.34 96.6221 167.274C96.9534 168.208 97.484 168.935 98.2155 169.453C98.947 169.971 99.8485 170.229 100.917 170.229C101.987 170.229 102.898 169.976 103.644 169.466C104.391 168.956 104.946 168.205 105.309 167.216C105.577 166.478 105.709 164.902 105.709 162.485V149.934H112.137V160.789C112.137 165.261 111.784 168.324 111.077 169.971C110.216 171.98 108.942 173.523 107.262 174.598C105.582 175.672 103.449 176.21 100.86 176.21C98.0484 176.21 95.7777 175.583 94.0435 174.327C92.3093 173.072 91.0882 171.32 90.3817 169.077C89.8788 167.522 89.6296 164.699 89.6296 160.601V149.934Z" fill="white"/>
<path d="M118.59 149.933H125.018V152.559C126.475 151.33 127.794 150.474 128.979 149.995C130.162 149.514 131.374 149.275 132.611 149.275C135.149 149.275 137.305 150.162 139.077 151.936C140.565 153.441 141.311 155.671 141.311 158.622V175.55H134.954V164.334C134.954 161.275 134.817 159.246 134.543 158.243C134.268 157.241 133.791 156.476 133.108 155.951C132.428 155.426 131.585 155.162 130.584 155.162C129.283 155.162 128.168 155.597 127.237 156.468C126.305 157.339 125.66 158.543 125.298 160.079C125.11 160.878 125.018 162.611 125.018 165.276V175.552H118.59V149.933Z" fill="white"/>
<path d="M148.303 140.493H154.731V149.933H158.544V155.467H154.731V175.55H148.303V155.467H145.008V149.933H148.303V140.493Z" fill="white"/>
<path d="M174.014 149.275C176.432 149.275 178.702 149.877 180.829 151.087C182.956 152.295 184.616 153.935 185.809 156.008C187.002 158.081 187.599 160.318 187.599 162.719C187.599 165.136 186.998 167.397 185.799 169.499C184.597 171.604 182.961 173.247 180.888 174.432C178.817 175.616 176.533 176.21 174.036 176.21C170.364 176.21 167.227 174.902 164.631 172.289C162.033 169.678 160.734 166.501 160.734 162.766C160.734 158.762 162.203 155.427 165.138 152.759C167.712 150.436 170.67 149.275 174.014 149.275ZM174.12 155.326C172.122 155.326 170.459 156.021 169.131 157.411C167.802 158.799 167.136 160.576 167.136 162.742C167.136 164.972 167.794 166.778 169.106 168.158C170.418 169.539 172.082 170.229 174.095 170.229C176.108 170.229 177.782 169.533 179.117 168.134C180.453 166.736 181.121 164.94 181.121 162.741C181.121 160.544 180.466 158.758 179.154 157.384C177.842 156.012 176.163 155.326 174.12 155.326Z" fill="white"/>
<path d="M208.529 153.513L204.549 157.491C202.932 155.889 201.467 155.09 200.147 155.09C199.425 155.09 198.86 155.244 198.451 155.548C198.042 155.854 197.84 156.234 197.84 156.689C197.84 157.035 197.969 157.354 198.228 157.644C198.488 157.934 199.125 158.33 200.147 158.833L202.502 160.01C204.982 161.234 206.684 162.483 207.61 163.754C208.535 165.025 209 166.517 209 168.226C209 170.503 208.164 172.401 206.493 173.923C204.822 175.446 202.581 176.207 199.772 176.207C196.034 176.207 193.054 174.748 190.824 171.828L194.78 167.518C195.534 168.399 196.418 169.109 197.429 169.65C198.442 170.191 199.34 170.46 200.125 170.46C200.974 170.46 201.656 170.258 202.175 169.849C202.692 169.44 202.952 168.971 202.952 168.437C202.952 167.448 202.018 166.482 200.15 165.539L197.984 164.456C193.839 162.37 191.768 159.756 191.768 156.618C191.768 154.593 192.548 152.862 194.109 151.425C195.672 149.989 197.668 149.272 200.103 149.272C201.767 149.272 203.331 149.635 204.799 150.365C206.266 151.1 207.508 152.147 208.529 153.513Z" fill="white"/>
</svg>
